# xmcd
#
# Track frame offsets: 
#        150
#        14992
#        32461
#        47674
#        65893
#        83377
#        98626
#        115546
#        133828
#        156555
#        177475
#        196656
#        214414
#        229451
#        247605
#
# Disc length: 3555 seconds
#
# Revision: 0
# Processed by: cddbd v1.5.1PL0 Copyright (c) Steve Scherf et al.
# Submitted via: ExactAudioCopy v0.95b1
#
DISCID=cc0de10f
DTITLE=Krzysztof Krawczyk - Nowy Jork-Paryz-Czestochowa [CD2)
DYEAR=2005
DGENRE=Pop
TTITLE0=Gdy nam spiewal Elvis Presley
TTITLE1=Przez jedna chwile zapomnienia
TTITLE2=Nowy Jork-dochodzi chyba piata
TTITLE3=Przezyc wszystko jeszcze raz
TTITLE4=Paryz i my
TTITLE5=Zawsze w drodze
TTITLE6=Bylas
TTITLE7=Zagraj z nami
TTITLE8=Zaufaj sercu
TTITLE9=W naszych marzeniach nic sie nie zmienia
TTITLE10=Ojcu Swietemu spiewajmy
TTITLE11=Abba Ojcze
TTITLE12=Ave Maria
TTITLE13=Graj i spiewaj Panu Chwaly
TTITLE14=Chwalcie Pana wszystkie narody
EXTD=
EXTT0=
EXTT1=
EXTT2=
EXTT3=
EXTT4=
EXTT5=
EXTT6=
EXTT7=
EXTT8=
EXTT9=
EXTT10=
EXTT11=
EXTT12=
EXTT13=
EXTT14=
PLAYORDER=
